<?xml version="1.0" encoding="UTF-8" standalone="no"?>
<svg
   xmlns:dc="http://purl.org/dc/elements/1.1/"
   xmlns:cc="http://creativecommons.org/ns#"
   xmlns:rdf="http://www.w3.org/1999/02/22-rdf-syntax-ns#"
   xmlns:svg="http://www.w3.org/2000/svg"
   xmlns="http://www.w3.org/2000/svg"
   xmlns:sodipodi="http://sodipodi.sourceforge.net/DTD/sodipodi-0.dtd"
   xmlns:inkscape="http://www.inkscape.org/namespaces/inkscape"
   id="svg2"
   xml:space="preserve"
   viewBox="0 0 35 35"
   version="1.1"
   sodipodi:docname="userIcon-red.svg"
   inkscape:version="0.92.0 r15299"><defs
     id="defs13" /><sodipodi:namedview
     pagecolor="#ffffff"
     bordercolor="#666666"
     borderopacity="1"
     objecttolerance="10"
     gridtolerance="10"
     guidetolerance="10"
     inkscape:pageopacity="0"
     inkscape:pageshadow="2"
     inkscape:window-width="3200"
     inkscape:window-height="1644"
     id="namedview11"
     showgrid="false"
     inkscape:zoom="38.14336"
     inkscape:cx="15.423729"
     inkscape:cy="17.5"
     inkscape:window-x="-16"
     inkscape:window-y="-16"
     inkscape:window-maximized="1"
     inkscape:current-layer="svg2" /><g
     id="g10"
     transform="matrix(1.25 0 0 -1.25 0 35)"><g
       id="g6008"
       transform="matrix(.32503 0 0 .32503 -100.86 -132.32)"><g
         id="g5704"
         transform="translate(362.96 472.25)"><path
           id="path5706"
           fill-rule="evenodd"
           fill="#6f6c6d"
           d="m0 0c0-4.93-3.997-8.927-8.927-8.927-4.929 0-8.927 3.997-8.927 8.927s3.998 8.927 8.927 8.927c4.93 0 8.927-3.997 8.927-8.927" /></g><g
         id="g5708"
         transform="translate(362.69 459.83)"><path
           id="path5710"
           fill-rule="evenodd"
           fill="#6f6c6d"
           d="m0 0c-1.353 0.946-3.808 1.721-5.458 1.721h-6c-1.65 0-4.105-0.775-5.458-1.721l-0.084-0.059c-1.353-0.946-2.458-3.07-2.458-4.72v-11.625c0-1.651 0.562-4.097 1.25-5.438 0.687-1.341 1.475-2.437 1.75-2.437s0.722-1.332 0.993-2.959l2.014-12.082c0.271-1.627 1.506-2.959 2.743-2.959h4.5c1.237 0 2.472 1.332 2.743 2.959l2.014 12.082c0.271 1.627 0.718 2.959 0.993 2.959s1.062 1.096 1.75 2.437c0.687 1.341 1.25 3.787 1.25 5.438v11.625c0 1.65-1.105 3.774-2.458 4.72l-0.084 0.059z" /></g></g></g><metadata
     id="metadata8"><rdf:RDF><cc:Work><dc:format>image/svg+xml</dc:format><dc:type
           rdf:resource="http://purl.org/dc/dcmitype/StillImage" /><cc:license
           rdf:resource="http://creativecommons.org/licenses/publicdomain/" /><dc:publisher><cc:Agent
             rdf:about="http://openclipart.org/"><dc:title>Openclipart</dc:title></cc:Agent></dc:publisher><dc:title /><dc:date>2013-05-07T09:49:53</dc:date><dc:description>Icon for representing a person</dc:description><dc:source>http://openclipart.org/detail/177854/person-icon-by-thekua-177854</dc:source><dc:creator><cc:Agent><dc:title>thekua</dc:title></cc:Agent></dc:creator><dc:subject><rdf:Bag><rdf:li>person icon people</rdf:li></rdf:Bag></dc:subject></cc:Work><cc:License
         rdf:about="http://creativecommons.org/licenses/publicdomain/"><cc:permits
           rdf:resource="http://creativecommons.org/ns#Reproduction" /><cc:permits
           rdf:resource="http://creativecommons.org/ns#Distribution" /><cc:permits
           rdf:resource="http://creativecommons.org/ns#DerivativeWorks" /></cc:License></rdf:RDF></metadata><path
     style="opacity:1;fill:#ff0000;fill-opacity:1;stroke:#ff0000;stroke-width:0.56052315;stroke-miterlimit:4;stroke-dasharray:none;stroke-opacity:1"
     d="M 16.263007,11.721015 C 14.931364,11.100921 14.266041,10.02001 14.268341,8.4803989 14.2724,5.763056 17.201128,4.098764 19.553227,5.4771858 c 2.000177,1.1721821 2.354378,4.0134745 0.696242,5.5850462 -1.066934,1.011233 -2.66312,1.275011 -3.986462,0.658783 z"
     id="path4495"
     inkscape:connector-curvature="0" /><path
     style="opacity:1;fill:#ff0000;fill-opacity:1;stroke:#ff0000;stroke-width:0.09908743;stroke-miterlimit:4;stroke-dasharray:none;stroke-opacity:1"
     d="m 16.748451,30.714865 c -0.35207,-0.09699 -0.690781,-0.448155 -0.840212,-0.871113 -0.03196,-0.09046 -0.240247,-1.26535 -0.497909,-2.808576 -0.534248,-3.19979 -0.59397,-3.459978 -0.828104,-3.60778 -0.115656,-0.07301 -0.259946,-0.252211 -0.447981,-0.556369 -0.280234,-0.453298 -0.427189,-0.810332 -0.566181,-1.375574 -0.176657,-0.71841 -0.173542,-0.654269 -0.173338,-3.568861 1.75e-4,-2.503956 0.0026,-2.641592 0.05051,-2.841167 0.158707,-0.66146 0.596052,-1.28208 1.125803,-1.597583 0.415225,-0.247296 1.11945,-0.489532 1.641822,-0.564747 0.146196,-0.02105 0.678336,-0.02718 1.756531,-0.02022 1.474881,0.0095 1.558164,0.01262 1.791291,0.06684 0.536183,0.124685 1.157708,0.375981 1.489232,0.60213 0.430229,0.293481 0.781644,0.804296 0.973022,1.414377 l 0.07224,0.230291 v 2.700339 c 0,2.492148 -0.0037,2.722224 -0.04781,2.9842 -0.148675,0.882633 -0.380429,1.508571 -0.78215,2.112492 -0.146611,0.220405 -0.329011,0.421962 -0.381856,0.421962 -0.08002,0 -0.237995,0.400373 -0.33102,0.838941 -0.02294,0.108144 -0.236944,1.364588 -0.475567,2.792098 -0.238622,1.427509 -0.452668,2.654459 -0.475657,2.726555 -0.114198,0.358144 -0.411252,0.723755 -0.704395,0.866963 l -0.157301,0.07684 -1.035567,0.0055 c -0.766244,0.0041 -1.066731,-0.0031 -1.155395,-0.02753 z"
     id="path4497"
     inkscape:connector-curvature="0" /></svg>