<?xml version="1.0" encoding="UTF-8" standalone="no"?>
<svg
   xmlns:dc="http://purl.org/dc/elements/1.1/"
   xmlns:cc="http://creativecommons.org/ns#"
   xmlns:rdf="http://www.w3.org/1999/02/22-rdf-syntax-ns#"
   xmlns:svg="http://www.w3.org/2000/svg"
   xmlns="http://www.w3.org/2000/svg"
   xmlns:sodipodi="http://sodipodi.sourceforge.net/DTD/sodipodi-0.dtd"
   xmlns:inkscape="http://www.inkscape.org/namespaces/inkscape"
   id="svg2"
   xml:space="preserve"
   viewBox="0 0 35 35"
   version="1.1"
   sodipodi:docname="userIcon-blue.svg"
   inkscape:version="0.92.0 r15299"><defs
     id="defs13" /><sodipodi:namedview
     pagecolor="#ffffff"
     bordercolor="#666666"
     borderopacity="1"
     objecttolerance="10"
     gridtolerance="10"
     guidetolerance="10"
     inkscape:pageopacity="0"
     inkscape:pageshadow="2"
     inkscape:window-width="3200"
     inkscape:window-height="1644"
     id="namedview11"
     showgrid="false"
     inkscape:zoom="38.14336"
     inkscape:cx="15.602978"
     inkscape:cy="17.5"
     inkscape:window-x="-16"
     inkscape:window-y="-16"
     inkscape:window-maximized="1"
     inkscape:current-layer="svg2" /><g
     id="g10"
     transform="matrix(1.25 0 0 -1.25 0 35)"><g
       id="g6008"
       transform="matrix(.32503 0 0 .32503 -100.86 -132.32)"><g
         id="g5704"
         transform="translate(362.96 472.25)"><path
           id="path5706"
           fill-rule="evenodd"
           fill="#6f6c6d"
           d="m0 0c0-4.93-3.997-8.927-8.927-8.927-4.929 0-8.927 3.997-8.927 8.927s3.998 8.927 8.927 8.927c4.93 0 8.927-3.997 8.927-8.927" /></g><g
         id="g5708"
         transform="translate(362.69 459.83)"><path
           id="path5710"
           fill-rule="evenodd"
           fill="#6f6c6d"
           d="m0 0c-1.353 0.946-3.808 1.721-5.458 1.721h-6c-1.65 0-4.105-0.775-5.458-1.721l-0.084-0.059c-1.353-0.946-2.458-3.07-2.458-4.72v-11.625c0-1.651 0.562-4.097 1.25-5.438 0.687-1.341 1.475-2.437 1.75-2.437s0.722-1.332 0.993-2.959l2.014-12.082c0.271-1.627 1.506-2.959 2.743-2.959h4.5c1.237 0 2.472 1.332 2.743 2.959l2.014 12.082c0.271 1.627 0.718 2.959 0.993 2.959s1.062 1.096 1.75 2.437c0.687 1.341 1.25 3.787 1.25 5.438v11.625c0 1.65-1.105 3.774-2.458 4.72l-0.084 0.059z" /></g></g></g><metadata
     id="metadata8"><rdf:RDF><cc:Work><dc:format>image/svg+xml</dc:format><dc:type
           rdf:resource="http://purl.org/dc/dcmitype/StillImage" /><cc:license
           rdf:resource="http://creativecommons.org/licenses/publicdomain/" /><dc:publisher><cc:Agent
             rdf:about="http://openclipart.org/"><dc:title>Openclipart</dc:title></cc:Agent></dc:publisher><dc:title /><dc:date>2013-05-07T09:49:53</dc:date><dc:description>Icon for representing a person</dc:description><dc:source>http://openclipart.org/detail/177854/person-icon-by-thekua-177854</dc:source><dc:creator><cc:Agent><dc:title>thekua</dc:title></cc:Agent></dc:creator><dc:subject><rdf:Bag><rdf:li>person icon people</rdf:li></rdf:Bag></dc:subject></cc:Work><cc:License
         rdf:about="http://creativecommons.org/licenses/publicdomain/"><cc:permits
           rdf:resource="http://creativecommons.org/ns#Reproduction" /><cc:permits
           rdf:resource="http://creativecommons.org/ns#Distribution" /><cc:permits
           rdf:resource="http://creativecommons.org/ns#DerivativeWorks" /></cc:License></rdf:RDF></metadata><path
     style="opacity:1;fill:#4285f4;fill-opacity:1;stroke:#4285f4;stroke-width:0.56052315;stroke-miterlimit:4;stroke-dasharray:none;stroke-opacity:1"
     d="M 16.571177,11.876802 C 15.847612,11.603612 14.9642,10.810255 14.58909,10.09677 14.14288,9.2480488 14.13758,7.7853789 14.577708,6.9555086 c 0.80991,-1.5271022 2.531819,-2.2994744 4.129281,-1.8522126 0.899647,0.2518854 2.046881,1.2895361 2.374672,2.1478425 0.590569,1.546383 -0.04972,3.4118715 -1.473098,4.2918775 -0.822286,0.508381 -2.179833,0.657565 -3.037386,0.333786 z"
     id="path5054"
     inkscape:connector-curvature="0" /><path
     style="opacity:1;fill:#4285f4;fill-opacity:1;stroke:#4285f4;stroke-width:0.56052315;stroke-miterlimit:4;stroke-dasharray:none;stroke-opacity:1"
     d="m 16.617758,30.598577 c -0.538019,-0.275185 -0.677981,-0.715811 -1.18503,-3.730709 -0.467449,-2.779429 -0.530999,-3.009662 -1.031214,-3.735952 -0.814713,-1.182928 -0.961291,-1.969521 -0.963313,-5.169518 -0.0019,-3.040789 0.07779,-3.436416 0.832728,-4.133243 0.697372,-0.643687 1.629201,-0.86729 3.614284,-0.86729 2.162749,0 3.175953,0.304579 3.820048,1.148346 l 0.407027,0.533208 0.04531,3.171326 c 0.0512,3.583037 -0.08423,4.39868 -0.881025,5.306177 -0.427692,0.487114 -0.492284,0.725582 -1.00563,3.71269 -0.66046,3.843144 -0.650267,3.825752 -2.275428,3.882728 -0.590649,0.02071 -1.210641,-0.03229 -1.37776,-0.117763 z"
     id="path5056"
     inkscape:connector-curvature="0" /></svg>