<?xml version="1.0" encoding="UTF-8" standalone="no"?>
<svg
   xmlns:dc="http://purl.org/dc/elements/1.1/"
   xmlns:cc="http://creativecommons.org/ns#"
   xmlns:rdf="http://www.w3.org/1999/02/22-rdf-syntax-ns#"
   xmlns:svg="http://www.w3.org/2000/svg"
   xmlns="http://www.w3.org/2000/svg"
   xmlns:sodipodi="http://sodipodi.sourceforge.net/DTD/sodipodi-0.dtd"
   xmlns:inkscape="http://www.inkscape.org/namespaces/inkscape"
   id="svg2"
   xml:space="preserve"
   viewBox="0 0 35 35"
   version="1.1"
   sodipodi:docname="userIcon-yellow.svg"
   inkscape:version="0.92.0 r15299"><defs
     id="defs13" /><sodipodi:namedview
     pagecolor="#ffffff"
     bordercolor="#666666"
     borderopacity="1"
     objecttolerance="10"
     gridtolerance="10"
     guidetolerance="10"
     inkscape:pageopacity="0"
     inkscape:pageshadow="2"
     inkscape:window-width="3200"
     inkscape:window-height="1644"
     id="namedview11"
     showgrid="false"
     inkscape:zoom="9.5358402"
     inkscape:cx="-28.882416"
     inkscape:cy="17.5"
     inkscape:window-x="-16"
     inkscape:window-y="-16"
     inkscape:window-maximized="1"
     inkscape:current-layer="svg2" /><g
     id="g10"
     transform="matrix(1.25 0 0 -1.25 0 35)"><g
       id="g6008"
       transform="matrix(.32503 0 0 .32503 -100.86 -132.32)"><g
         id="g5704"
         transform="translate(362.96 472.25)"><path
           id="path5706"
           fill-rule="evenodd"
           fill="#6f6c6d"
           d="m0 0c0-4.93-3.997-8.927-8.927-8.927-4.929 0-8.927 3.997-8.927 8.927s3.998 8.927 8.927 8.927c4.93 0 8.927-3.997 8.927-8.927" /></g><g
         id="g5708"
         transform="translate(362.69 459.83)"><path
           id="path5710"
           fill-rule="evenodd"
           fill="#6f6c6d"
           d="m0 0c-1.353 0.946-3.808 1.721-5.458 1.721h-6c-1.65 0-4.105-0.775-5.458-1.721l-0.084-0.059c-1.353-0.946-2.458-3.07-2.458-4.72v-11.625c0-1.651 0.562-4.097 1.25-5.438 0.687-1.341 1.475-2.437 1.75-2.437s0.722-1.332 0.993-2.959l2.014-12.082c0.271-1.627 1.506-2.959 2.743-2.959h4.5c1.237 0 2.472 1.332 2.743 2.959l2.014 12.082c0.271 1.627 0.718 2.959 0.993 2.959s1.062 1.096 1.75 2.437c0.687 1.341 1.25 3.787 1.25 5.438v11.625c0 1.65-1.105 3.774-2.458 4.72l-0.084 0.059z" /></g></g></g><metadata
     id="metadata8"><rdf:RDF><cc:Work><dc:format>image/svg+xml</dc:format><dc:type
           rdf:resource="http://purl.org/dc/dcmitype/StillImage" /><cc:license
           rdf:resource="http://creativecommons.org/licenses/publicdomain/" /><dc:publisher><cc:Agent
             rdf:about="http://openclipart.org/"><dc:title>Openclipart</dc:title></cc:Agent></dc:publisher><dc:title /><dc:date>2013-05-07T09:49:53</dc:date><dc:description>Icon for representing a person</dc:description><dc:source>http://openclipart.org/detail/177854/person-icon-by-thekua-177854</dc:source><dc:creator><cc:Agent><dc:title>thekua</dc:title></cc:Agent></dc:creator><dc:subject><rdf:Bag><rdf:li>person icon people</rdf:li></rdf:Bag></dc:subject></cc:Work><cc:License
         rdf:about="http://creativecommons.org/licenses/publicdomain/"><cc:permits
           rdf:resource="http://creativecommons.org/ns#Reproduction" /><cc:permits
           rdf:resource="http://creativecommons.org/ns#Distribution" /><cc:permits
           rdf:resource="http://creativecommons.org/ns#DerivativeWorks" /></cc:License></rdf:RDF></metadata><path
     style="opacity:1;fill:#fec009;fill-opacity:1;stroke:#fec009;stroke-width:0.14013079;stroke-miterlimit:4;stroke-dasharray:none;stroke-opacity:1"
     d="m 17.127071,12.0864 c -0.760049,-0.145026 -1.421641,-0.502035 -1.944475,-1.04928 -0.345808,-0.361953 -0.478638,-0.553773 -0.684701,-0.988777 -0.250036,-0.5278312 -0.327733,-0.89663 -0.32508,-1.5430463 0.0017,-0.4233871 0.01859,-0.5980665 0.07931,-0.8221824 0.365334,-1.3482891 1.316434,-2.3044959 2.639394,-2.6535643 0.506849,-0.133734 1.236588,-0.133734 1.743436,0 1.46859,0.3874933 2.510096,1.5618049 2.708965,3.0543931 0.113488,0.8517739 -0.136189,1.8348805 -0.647042,2.5477339 -0.480368,0.670315 -1.236082,1.185183 -2.056919,1.401382 -0.368912,0.09717 -1.140622,0.124375 -1.512892,0.05334 z"
     id="path6208"
     inkscape:connector-curvature="0" /><path
     style="opacity:1;fill:#fec009;fill-opacity:1;stroke:#fec009;stroke-width:0.14013079;stroke-miterlimit:4;stroke-dasharray:none;stroke-opacity:1"
     d="m 16.701386,30.694004 c -0.314272,-0.09871 -0.649783,-0.466885 -0.791497,-0.868544 -0.03165,-0.08971 -0.257089,-1.35717 -0.500974,-2.816582 -0.536833,-3.212426 -0.592142,-3.45117 -0.832339,-3.59289 -0.135096,-0.07971 -0.460581,-0.548907 -0.660041,-0.951475 -0.161019,-0.324981 -0.267648,-0.633259 -0.391137,-1.130826 l -0.09662,-0.389301 -0.01366,-2.817797 c -0.0098,-2.02276 -0.0017,-2.875332 0.02883,-3.021716 0.02337,-0.112156 0.125776,-0.37659 0.227571,-0.587631 0.153331,-0.317885 0.233955,-0.433204 0.469968,-0.672212 0.243216,-0.246302 0.341829,-0.315762 0.674187,-0.474871 0.390223,-0.186813 0.699484,-0.295455 1.149364,-0.403771 0.36455,-0.08777 2.983824,-0.114024 3.506429,-0.03514 0.687899,0.103828 1.471652,0.407606 1.898025,0.735665 0.248387,0.191113 0.499024,0.522256 0.681466,0.900359 0.261323,0.541577 0.259824,0.519821 0.243841,3.538641 -0.01556,2.938714 -0.01061,2.865853 -0.249815,3.677388 -0.170376,0.578017 -0.635536,1.402967 -0.908466,1.611141 -0.149625,0.114124 -0.241861,0.294404 -0.336073,0.656871 -0.03287,0.126468 -0.266364,1.464378 -0.518871,2.973133 -0.410271,2.451406 -0.470778,2.766902 -0.568851,2.966102 -0.148055,0.300722 -0.325884,0.499843 -0.564361,0.63193 l -0.198684,0.110048 -1.038135,0.0078 c -0.822785,0.0061 -1.073821,-0.0035 -1.210161,-0.04628 z"
     id="path6210"
     inkscape:connector-curvature="0" /></svg>